PathFileType	4	(X/Y/Z)	c:/Users/goper/Files/vsCode/490R/osim_files/A01/A01_Slow_03.trc
DataRate	CameraRate	NumFrames	NumMarkers	Units                	OrigDataRate	OrigDataStartFrame	OrigNumFrames
120.00	120.00	10	36	mm	120.0	839	1676
                Frame#	Time	Mobility_markerset:LPSIS			Mobility_markerset:LASIS			Mobility_markerset:LTH1			Mobility_markerset:LTH2			Mobility_markerset:LTH3			Mobility_markerset:LTH4			Mobility_markerset:LLFE			Mobility_markerset:LMFE			Mobility_markerset:LSH1			Mobility_markerset:LSH2			Mobility_markerset:LSH3			Mobility_markerset:LSH4			Mobility_markerset:LLMAL			Mobility_markerset:LMMAL			Mobility_markerset:LCAL			Mobility_markerset:LMTP5			Mobility_markerset:LTOE			Mobility_markerset:LMTP1			Mobility_markerset:RPSIS			Mobility_markerset:RASIS			Mobility_markerset:RTH1			Mobility_markerset:RTH2			Mobility_markerset:RTH3			Mobility_markerset:RTH4			Mobility_markerset:RLFE			Mobility_markerset:RMFE			Mobility_markerset:RSH1			Mobility_markerset:RSH2			Mobility_markerset:RSH3			Mobility_markerset:RSH4			Mobility_markerset:RLMAL			Mobility_markerset:RMMAL			Mobility_markerset:RCAL			Mobility_markerset:RMTP1			Mobility_markerset:RTOE			Mobility_markerset:RMTP5		
		X1	Y1	Z1	X2	Y2	Z2	X3	Y3	Z3	X4	Y4	Z4	X5	Y5	Z5	X6	Y6	Z6	X7	Y7	Z7	X8	Y8	Z8	X9	Y9	Z9	X10	Y10	Z10	X11	Y11	Z11	X12	Y12	Z12	X13	Y13	Z13	X14	Y14	Z14	X15	Y15	Z15	X16	Y16	Z16	X17	Y17	Z17	X18	Y18	Z18	X19	Y19	Z19	X20	Y20	Z20	X21	Y21	Z21	X22	Y22	Z22	X23	Y23	Z23	X24	Y24	Z24	X25	Y25	Z25	X26	Y26	Z26	X27	Y27	Z27	X28	Y28	Z28	X29	Y29	Z29	X30	Y30	Z30	X31	Y31	Z31	X32	Y32	Z32	X33	Y33	Z33	X34	Y34	Z34	X35	Y35	Z35	X36	Y36	Z36

839	6.98333	-1472.74133	1047.00256	333.80978	-1719.99451	1021.14984	408.89539	-1633.06787	692.65857	463.28076	-1648.37146	646.32593	452.61774	-1693.47754	704.31293	461.74323	-1697.69031	659.82910	448.53189	-1690.75488	538.72552	411.30328	-1700.03162	548.79828	273.11411	-1640.64905	378.83142	397.76465	-1636.02588	331.01370	398.79105	-1701.74048	368.94455	391.81839	-1688.88184	324.63663	392.33676	-1628.41467	89.00178	370.10300	-1614.62036	88.03873	290.29318	-1546.18347	60.05687	333.96356	-1770.31592	37.37867	377.77448	-1793.05396	59.40949	310.17896	-1765.17163	47.82388	277.66739	-1469.34668	1035.97217	231.96652	-1696.13159	984.92664	148.15747	-1693.25488	679.45459	65.69343	-1705.28540	637.96655	68.09241	-1636.01624	656.03284	72.60150	-1657.60107	617.74921	75.37289	-1734.19531	491.79803	104.56017	-1764.89124	505.33868	226.40149	-1529.57019	424.72473	123.48488	-1495.95239	395.67560	125.40231	-1564.31458	376.18558	113.18581	-1526.81506	352.15103	117.09344	-1377.39844	267.05365	165.82506	-1415.32751	255.81294	245.79301	-1331.20032	294.10077	221.46951	-1428.24390	109.89548	246.11865	-1456.57690	93.24395	196.82286	-1396.20740	121.47905	138.95073
840	6.99167	-1481.32861	1048.31177	334.37582	-1728.22595	1021.93060	409.42166	-1638.12976	693.20081	463.37939	-1653.22412	646.62000	452.73248	-1698.81165	704.14313	462.10092	-1702.46545	659.57953	448.90594	-1694.62097	538.62152	411.60080	-1704.06628	548.74963	273.43033	-1643.21936	379.14246	397.89368	-1638.25977	331.34875	398.93304	-1704.28577	368.74747	391.91592	-1691.11987	324.63614	392.45654	-1628.95142	89.28167	370.10892	-1614.98682	88.40421	290.12900	-1546.42786	60.79650	333.98215	-1770.44812	37.29903	377.81284	-1793.29834	59.19948	310.17007	-1765.31250	47.74686	277.63467	-1478.14429	1037.06641	232.75357	-1704.87659	986.70660	148.88354	-1707.60828	682.36615	66.62557	-1720.34302	641.21344	69.12993	-1650.68518	658.06000	73.60812	-1673.01904	620.12482	76.56502	-1752.42322	495.57898	106.61959	-1782.20471	510.38272	228.57780	-1549.33020	422.97342	124.30880	-1516.63586	392.96774	126.56580	-1585.86560	375.04727	115.34327	-1548.76648	350.53833	118.53605	-1400.79126	261.56955	167.06149	-1439.03979	252.21365	247.46635	-1353.34961	286.74744	222.43919	-1458.41870	107.19467	248.49873	-1487.64636	91.95569	199.51970	-1426.35461	116.84850	141.14563
841	7.00000	-1489.56482	1049.58472	334.80511	-1736.38647	1022.89233	409.90726	-1643.27026	693.69000	463.44907	-1658.06580	646.85486	452.68878	-1703.91870	703.98090	462.35596	-1707.20984	659.58417	449.16724	-1698.45605	538.53009	411.80957	-1707.99731	548.65552	273.61041	-1645.83862	379.47354	397.96259	-1640.46228	331.70346	399.04605	-1706.79297	368.72363	392.12091	-1693.28259	324.52676	392.50888	-1629.41040	89.57556	370.20834	-1615.32593	88.73881	290.01352	-1546.75354	61.44427	333.98126	-1770.59583	37.18659	377.87891	-1793.47778	58.97831	310.18869	-1765.50830	47.64882	277.64548	-1486.69153	1038.37256	233.25688	-1713.37195	988.51312	149.65660	-1722.10303	685.35986	67.64640	-1735.19446	644.39825	70.36121	-1665.30994	660.18390	74.60564	-1688.20386	622.61090	77.66575	-1769.98682	499.42850	108.82483	-1798.85474	515.35315	230.67955	-1568.82190	420.78183	125.22730	-1537.04053	389.39847	128.11195	-1606.59595	373.95169	116.43858	-1570.05469	348.64557	120.38152	-1424.99426	255.07422	168.48737	-1463.10815	247.83801	249.09848	-1375.70776	278.47968	223.43156	-1489.09058	104.17474	250.51843	-1519.45886	90.12505	201.81337	-1457.26392	111.82854	143.23129
842	7.00833	-1497.93872	1050.77563	335.09659	-1744.53943	1023.88019	410.45801	-1648.17786	694.23682	463.34683	-1662.87646	646.97125	452.80081	-1709.41260	703.86707	462.45093	-1711.97986	659.39886	449.22922	-1701.98291	538.29205	411.88126	-1711.88916	548.54730	273.74866	-1648.39746	379.74863	398.13803	-1642.71619	332.11670	399.07495	-1709.26001	368.50064	392.18289	-1695.55310	324.39188	392.59052	-1629.75488	89.78442	370.25281	-1615.66626	89.07642	289.88864	-1547.03809	62.04392	333.95490	-1770.68054	37.03711	377.91479	-1793.70337	58.74555	310.20340	-1765.67310	47.53552	277.64404	-1495.06238	1039.56445	233.45557	-1722.05029	990.53583	150.68860	-1736.17712	688.54852	68.58221	-1749.57227	647.69086	71.45889	-1679.86169	662.22327	75.51456	-1703.29456	625.10333	78.77245	-1787.35168	503.35339	111.50838	-1815.25269	520.30084	232.95770	-1588.44812	418.30112	126.19833	-1557.56982	385.86765	129.16679	-1628.22229	372.79147	119.04310	-1591.85278	346.45560	122.19329	-1449.36084	248.00027	169.94722	-1487.60913	242.74623	250.63133	-1398.73450	269.08167	224.65437	-1520.93555	100.74144	252.41972	-1551.74939	88.32158	203.81824	-1488.81433	106.51765	145.04568
843	7.01667	-1506.09998	1051.80432	335.15222	-1751.50806	1024.12048	410.59381	-1653.69482	694.51843	463.16318	-1667.16980	647.72754	453.70261	-1714.49780	703.66632	462.65173	-1717.03638	658.92004	449.39841	-1706.08838	538.34125	411.92856	-1715.83423	548.36487	273.80322	-1651.09045	380.01315	398.14227	-1644.63440	332.68500	398.77100	-1711.75354	368.21005	392.22137	-1697.71338	324.25964	392.60834	-1630.01221	90.01393	370.32681	-1615.95459	89.38155	289.81369	-1547.31848	62.75630	333.98633	-1770.83984	36.89744	378.02396	-1794.24646	58.64614	309.86685	-1765.89062	47.39661	277.58774	-1503.53052	1040.70862	233.62791	-1730.83118	992.55609	151.63922	-1750.00818	691.39209	70.15815	-1764.71680	650.78601	73.19537	-1694.28076	664.38391	76.29443	-1718.29492	627.58759	79.82406	-1803.64172	507.17444	113.80712	-1830.72827	525.07990	235.20731	-1607.86877	415.36148	127.26436	-1578.28992	381.80698	130.35732	-1649.63452	370.92795	121.11267	-1614.89221	342.54224	124.83466	-1474.14441	240.16840	171.21669	-1512.43726	236.93221	252.12746	-1422.13184	258.82526	225.78351	-1553.02380	97.07265	254.24165	-1584.38879	85.82397	205.65359	-1520.92480	100.95723	146.67661
844	7.02500	-1514.28308	1052.68860	335.08621	-1759.30066	1024.85095	411.25558	-1659.25916	694.70184	462.80695	-1672.03552	647.93231	453.35458	-1719.63953	703.48724	462.75592	-1721.42639	658.86383	449.37692	-1709.93494	538.21234	412.00494	-1719.93164	548.10986	273.80731	-1653.73743	380.27872	398.13727	-1647.18860	332.78406	399.11658	-1714.32507	367.98892	392.34360	-1699.97253	324.20514	392.71063	-1629.80420	89.80959	370.36740	-1616.34546	89.76005	289.68524	-1547.72888	63.35022	333.98575	-1771.01062	36.79068	378.09622	-1793.88330	58.10737	310.38147	-1765.71509	47.07000	277.80798	-1511.72229	1041.81140	233.57475	-1739.41223	994.65668	152.84100	-1764.33118	694.31366	71.71889	-1779.17041	653.98834	74.79272	-1708.49426	666.41748	76.93307	-1732.58887	630.20026	80.45287	-1819.72302	510.89285	116.54432	-1846.29553	529.98291	237.91011	-1627.12366	411.97412	128.33015	-1598.95752	377.23959	131.37029	-1670.61902	369.14926	122.96623	-1637.11230	339.45374	126.52081	-1499.49976	231.63884	172.34430	-1537.68274	230.49422	253.47600	-1446.53845	247.64883	226.90982	-1585.60034	93.77966	255.81718	-1617.91785	83.81417	207.09807	-1553.52063	95.19248	148.09726
845	7.03333	-1522.44409	1053.44495	334.96207	-1766.76477	1025.37451	411.89679	-1664.36060	695.11084	462.53781	-1676.93127	648.08813	453.12329	-1724.81958	703.26874	462.78940	-1726.11731	658.66693	449.42719	-1713.83459	538.04053	412.04837	-1723.92346	547.90845	274.01938	-1656.39868	380.55878	398.11951	-1649.58545	333.08194	399.05118	-1716.88879	367.82251	392.26138	-1702.09106	324.12888	392.66098	-1631.00208	90.66074	370.19263	-1616.71240	90.19524	289.52768	-1547.81750	64.18822	333.88779	-1771.06738	36.86075	378.27063	-1794.07190	57.94737	310.34631	-1765.84729	46.97897	277.80270	-1520.22302	1042.66357	233.28850	-1748.06360	996.58588	153.89044	-1777.93201	697.24243	73.22497	-1793.38354	657.14856	76.55005	-1722.12708	668.38745	77.50441	-1747.35352	632.48291	81.67915	-1835.27649	514.39423	119.29329	-1860.75024	534.59045	240.49319	-1646.36682	408.09421	129.48734	-1619.51904	372.20499	132.47209	-1691.71997	366.99576	124.80681	-1659.28564	335.95932	128.14902	-1525.30542	222.67677	173.31735	-1563.10950	223.59383	254.79012	-1471.47107	235.98589	227.84277	-1618.58313	89.82816	257.02759	-1651.48792	81.77053	208.39372	-1586.64038	89.43183	149.28824
846	7.04167	-1530.52917	1054.09766	334.66971	-1774.36963	1025.97461	412.60391	-1669.50903	695.43976	462.38391	-1680.14355	649.58813	453.03641	-1729.52271	702.93054	462.95053	-1731.70178	659.18976	450.15369	-1717.60767	537.77551	412.01660	-1728.45349	547.44733	274.44589	-1659.13367	380.87299	398.11285	-1651.88806	333.40887	399.09464	-1719.58020	367.75125	392.33704	-1704.39282	324.16040	392.70660	-1631.37341	91.04321	370.15527	-1617.19568	90.59276	289.29141	-1548.09546	64.85703	333.83142	-1771.19458	36.81533	378.27951	-1794.25171	57.78762	310.29221	-1766.08069	47.09801	277.61282	-1528.44543	1043.41626	232.93994	-1756.87451	998.41858	155.10336	-1791.49194	699.91321	74.79472	-1807.72546	659.84943	78.57447	-1736.17310	670.43329	78.44035	-1761.47461	634.84296	82.73362	-1850.34265	517.68860	122.16476	-1874.44067	538.95197	243.02124	-1665.49048	403.78241	130.84900	-1640.34412	366.70535	133.59943	-1712.61780	364.63821	126.78704	-1681.48804	332.25650	129.81378	-1551.91284	213.20262	174.17340	-1589.79797	215.94893	255.74370	-1497.16431	223.72777	228.61592	-1651.97620	85.79932	258.04224	-1685.49731	79.60751	209.45273	-1620.31897	83.67841	150.20021
847	7.05000	-1538.99011	1054.46118	334.15579	-1781.81042	1026.36499	413.34387	-1674.71008	695.61700	462.17462	-1684.97498	649.78394	452.81558	-1735.37781	702.63574	462.68805	-1736.40405	658.84869	450.13596	-1721.47778	537.56439	411.99628	-1733.20801	547.25836	275.22754	-1661.74866	381.12210	398.09119	-1654.22778	333.72766	399.05292	-1722.19214	367.56094	392.23843	-1706.66101	324.03815	392.61673	-1631.78125	91.36671	370.22061	-1617.53809	91.05293	289.11978	-1548.30212	65.59409	333.80737	-1771.49487	36.63177	378.19382	-1794.41699	57.61420	310.26144	-1766.15662	47.13327	277.59546	-1536.70947	1044.04956	232.46986	-1765.34521	1000.00177	155.97780	-1803.98657	702.74365	76.59202	-1821.09839	662.73334	80.62244	-1749.56982	672.30762	79.12244	-1775.01978	637.13885	83.77882	-1864.72852	520.84381	125.05239	-1887.52234	542.99982	245.64494	-1684.44336	399.09265	132.34029	-1660.66699	361.33780	134.61397	-1733.86951	362.00186	128.84477	-1704.09985	328.52881	131.81329	-1578.95422	203.53252	174.85405	-1616.20776	208.10239	256.67618	-1523.49292	210.93845	229.25928	-1685.77087	81.77824	258.69141	-1719.92310	77.77269	210.40572	-1654.52612	78.24093	150.86700
848	7.05833	-1547.03308	1054.85071	333.67831	-1789.39099	1026.57178	414.13062	-1679.74133	695.87421	462.00677	-1689.97888	649.74500	452.72830	-1740.52539	702.13342	462.86948	-1741.27441	658.49377	450.14957	-1725.60303	537.35760	412.07941	-1735.70300	547.13947	273.87503	-1664.43701	381.40054	398.07718	-1656.57776	334.05905	399.05475	-1724.71912	367.29633	392.30954	-1708.94629	323.89795	392.74899	-1632.21570	91.69808	370.27933	-1618.24963	91.23075	288.82950	-1548.55591	66.32556	333.81342	-1771.62109	36.53737	378.23541	-1794.52222	57.45004	310.29437	-1766.24524	47.07953	277.55789	-1545.15173	1044.60913	231.89682	-1774.18835	1001.34796	156.98024	-1816.59570	705.17804	78.32144	-1834.35632	665.28625	82.78990	-1762.51050	674.16534	79.86420	-1788.23804	639.27423	84.89194	-1878.65881	523.91583	128.04813	-1899.68872	546.65894	248.12776	-1703.34448	394.28354	134.02211	-1681.61816	355.30640	136.17496	-1754.28516	359.66275	130.46342	-1726.24048	324.62872	133.41849	-1607.10632	193.30925	175.34761	-1642.54749	200.06168	257.79398	-1550.66211	197.73582	229.74696	-1719.87952	78.05081	259.16104	-1754.64600	76.18616	210.67035	-1689.44092	73.00451	151.39749
